#!OML:ASF F:\VICON\USERDATA\INSTALL\rory3\rory3.ASF
:FULLY-SPECIFIED
:DEGREES
46
root -0.2852828317313531 16.897718435945055 14.805191604577923 3.5301607734776836 -2.599070262520058 -5.208893243512518
lfemur -28.66499964518425 7.669130159730836 -9.702619264174574
ltibia 110.75123427011316
lfoot 4.977220204785686 -8.179828886795432
ltoes -1.0998114645478
rfemur -18.63915831349192 7.241584846269202 36.69028305017251
rtibia 54.87595462083721
rfoot -27.023364844306073 -17.673507139364972
rtoes -3.64752885569198
lowerback 18.068378844619613 0.3696639599806967 3.882754634785816
upperback -0.16912225729179875 1.5273866573402808 3.1150094290098793
thorax -10.163921760522168 0.6253417236828912 0.6117604708561064
lowerneck -21.266493714988194 -3.8744955753213595 -1.6485400229039795
upperneck 12.178739862674664 -5.114188923390932 1.9663526428711104
head 7.322031907650494 -2.3245568701636876 0.29110796391048327
lclavicle -1.1122976566978726e-15 -9.272258174696867e-16
lhumerus -51.751055470180816 -10.723095498723092 97.40691159688002
lradius 104.39923621409685
lwrist 35.142418138948685
lhand -24.391100519697403 3.2785111340152024
lfingers 7.125020000000056
lthumb 2.098964658000294 33.180269211618565
rclavicle -1.1122976566978726e-15 -9.272258174696867e-16
rhumerus -39.3871888885799 11.355378110063022 -97.16386325876965
rradius 108.84256627191382
rwrist -17.41333593869969
rhand -20.334944014881717 33.07693510823562
rfingers 7.125020000000056
rthumb 6.015975283945602 9.38515657280322
47
root -0.2845464798328192 16.97163654498045 15.327178302050587 3.8360416824554955 -1.3961621376853839 -5.335465324486832
lfemur -34.38249340404141 7.126083809760036 -10.14536643571269
ltibia 110.3584801143078
lfoot 2.046596529788489 -7.017496629195813
ltoes -2.7053019049293408
rfemur -14.606324100204013 6.681787238950452 36.944906402534656
rtibia 52.98435780263836
rfoot -27.34266504152198 -18.06917021540442
rtoes -8.855841792759243
lowerback 17.72180398074545 0.5645129884856532 4.204698499976599
upperback -0.2755665841393126 1.83485895395504 2.972176481872138
thorax -10.096287705955154 0.7523765507812823 0.1863410431094603
lowerneck -21.24963216681049 -4.236853398121384 -1.7207612299441553
upperneck 12.034770779592897 -5.624432300560461 2.237334766091336
head 7.296750068515218 -2.5505487807775817 0.3364831467153687
lclavicle -1.1974706255179507e-15 -9.931754872931695e-16
lhumerus -54.300089672250046 -11.093966343270798 97.65292721807602
lradius 104.7400472073208
lwrist 35.168842194407226
lhand -23.973571445626032 3.2825472958871345
lfingers 7.125020000000056
lthumb 2.5020381421040394 33.171409889754216
rclavicle -1.1974706255179507e-15 -9.931754872931695e-16
rhumerus -36.779482728409285 11.853029130566213 -96.90802338302481
rradius 109.82653595736552
rwrist -17.60530707935647
rhand -20.29214251414214 33.28759835985183
rfingers 7.125020000000056
rthumb 6.057555638274181 9.309057027725474
48
root -0.28532890702676567 17.09766315007977 15.91193541712568 3.998545771233559 -0.24861246364846673 -5.32986713029644
lfemur -39.171721708510766 6.0550155084898245 -11.143983147967662
ltibia 108.17519559718939
lfoot -0.20175177452373472 -6.2576546339172925
ltoes -4.768866888000736
rfemur -10.710135317002358 5.732483617137206 36.83131625595992
rtibia 50.17623710311769
rfoot -25.70996525860885 -17.04454603972707
rtoes -12.720376162756574
lowerback 17.282102810785652 0.7369622737075672 4.44097006554522
upperback -0.41562684238169295 2.086944507917233 2.74087816382826
thorax -10.036944683813367 0.8547235335199076 -0.2922571283690659
lowerneck -21.122098740009488 -4.618584487587459 -1.8315743899324735
upperneck 12.006049948429139 -6.155091059115404 2.471259117695107
head 7.290510231263142 -2.7903609398620817 0.3748686465911003
lclavicle -1.4411559546091073e-15 -1.1818617361399984e-15
lhumerus -56.9285565079592 -11.44988375637021 97.84409019989151
lradius 105.18191990667069
lwrist 35.293414158167565
lhand -23.613501829457157 2.9820570455041615
lfingers 7.125020000000055
lthumb 2.849640031069331 32.85832634240076
rclavicle -1.4411559546091073e-15 -1.1818617361399984e-15
rhumerus -35.056661092740065 12.089142882303214 -96.73548386728265
rradius 110.80811397669322
rwrist -17.951884647614946
rhand -20.26333047771257 33.32556179850902
rfingers 7.125020000000055
rthumb 6.085612902658147 9.537633335934693
49
root -0.2793490742378766 17.27437796398627 16.860934306432547 4.0597340030832925 0.8922020782321014 -5.197018793645881
lfemur -42.6216154812616 4.588046908881057 -12.36559182187369
ltibia 104.55401317437588
lfoot -1.5517410166854175 -5.828959236445291
ltoes -7.081001171515925
rfemur -6.600719197451747 4.612297824144179 36.52138937067919
rtibia 46.91259935238408
rfoot -21.73396545174211 -14.914612647659768
rtoes -14.78255772395511
lowerback 16.81551102985355 0.9167069598684032 4.7374653729676135
upperback -0.5675303551678679 2.3457501096481104 2.469940756962069
thorax -9.951892414017507 0.9577310306854478 -0.8028197003515146
lowerneck -20.85408891321113 -4.976438914859564 -1.9323087666310645
upperneck 12.184525153104591 -6.651398833125049 2.6600716219842373
head 7.326536163138667 -3.019819096563748 0.40036746398817685
lclavicle -1.4900188759011686e-15 -1.2196964338722621e-15
lhumerus -59.32061148049391 -11.475110363527572 98.0043663997457
lradius 106.09537672264415
lwrist 35.61535655038519
lhand -23.26388804226414 2.8542410341992284
lfingers 7.125020000000055
lthumb 3.1871849837312523 32.720195868460095
rclavicle -1.4900188759011686e-15 -1.2196964338722621e-15
rhumerus -33.836986879399745 12.322050223784384 -96.44917518429976
rradius 112.17434799684442
rwrist -18.27768286411407
rhand -20.195089858714514 33.144653149750255
rfingers 7.125020000000055
rthumb 6.151635596064576 10.310776553139887
